<svg width="25" height="32" viewBox="0 0 25 32" fill="none" xmlns="http://www.w3.org/2000/svg">
<path d="M23.4881 0.00106936C23.1066 0.0201098 22.7445 0.287176 22.4785 0.745688L7.36362 26.0627L2.528 17.9632C2.39269 17.7271 2.23061 17.5387 2.05127 17.4088C1.87193 17.279 1.67892 17.2104 1.48356 17.2071C1.28819 17.2038 1.09439 17.2658 0.91351 17.3895C0.732628 17.5131 0.5683 17.6961 0.430148 17.9275C0.291996 18.1589 0.182799 18.4341 0.10895 18.7371C0.0351025 19.04 -0.00191166 19.3647 7.60101e-05 19.6919C0.00206368 20.0191 0.0430128 20.3424 0.120526 20.6428C0.198039 20.9432 0.310557 21.2147 0.451491 21.4413L6.32537 31.2799C6.60077 31.741 6.97422 32 7.36362 32C7.75302 32 8.12647 31.741 8.40187 31.2799L24.555 4.22378C24.7672 3.87829 24.9122 3.43349 24.9708 2.94766C25.0295 2.46183 24.9992 1.95764 24.8839 1.50117C24.7685 1.04469 24.5736 0.657226 24.3245 0.389545C24.0754 0.121865 23.7839 -0.0135418 23.4881 0.00106936Z" fill="black"/>
</svg>
