<svg width="31" height="894" viewBox="0 0 31 894" fill="none" xmlns="http://www.w3.org/2000/svg">
<rect x="12" y="25" width="5" height="846" rx="2.5" fill="#95E1E1"/>
<circle cx="15" cy="15" r="15" fill="#95E1E1"/>
<path d="M16.833 20H15.2266V13.5469C15.2266 12.7767 15.2448 12.166 15.2812 11.7148C15.1764 11.8242 15.0465 11.945 14.8916 12.0771C14.7412 12.2093 14.2308 12.6286 13.3604 13.335L12.5537 12.3164L15.4932 10.0059H16.833V20Z" fill="white"/>
<circle cx="16" cy="85" r="15" fill="#95E1E1"/>
<path d="M19.8906 90H13.1162V88.7832L15.6934 86.1924C16.4544 85.4131 16.958 84.8617 17.2041 84.5381C17.4548 84.21 17.637 83.9023 17.751 83.6152C17.8649 83.3281 17.9219 83.0205 17.9219 82.6924C17.9219 82.2412 17.7852 81.8857 17.5117 81.626C17.2428 81.3662 16.8691 81.2363 16.3906 81.2363C16.0078 81.2363 15.6364 81.307 15.2764 81.4482C14.9209 81.5895 14.5085 81.8447 14.0391 82.2139L13.1709 81.1543C13.7269 80.6849 14.2669 80.3522 14.791 80.1562C15.3151 79.9603 15.8734 79.8623 16.4658 79.8623C17.3955 79.8623 18.1406 80.1061 18.7012 80.5938C19.2617 81.0768 19.542 81.7285 19.542 82.5488C19.542 83 19.46 83.4284 19.2959 83.834C19.1364 84.2396 18.888 84.6589 18.5508 85.0918C18.2181 85.5202 17.6621 86.1012 16.8828 86.835L15.1465 88.5166V88.585H19.8906V90Z" fill="white"/>
<circle cx="15" cy="166" r="15" fill="#95E1E1"/>
<path d="M18.5146 163.303C18.5146 163.936 18.3301 164.465 17.9609 164.889C17.5918 165.308 17.0723 165.59 16.4023 165.736V165.791C17.2044 165.891 17.806 166.142 18.207 166.543C18.6081 166.939 18.8086 167.468 18.8086 168.129C18.8086 169.09 18.4691 169.833 17.79 170.357C17.111 170.877 16.1449 171.137 14.8916 171.137C13.7842 171.137 12.8499 170.957 12.0889 170.597V169.168C12.5127 169.378 12.9616 169.539 13.4355 169.653C13.9095 169.767 14.3652 169.824 14.8027 169.824C15.5775 169.824 16.1562 169.681 16.5391 169.394C16.9219 169.106 17.1133 168.662 17.1133 168.061C17.1133 167.527 16.9014 167.135 16.4775 166.885C16.0537 166.634 15.3883 166.509 14.4814 166.509H13.6133V165.203H14.4951C16.0902 165.203 16.8877 164.652 16.8877 163.549C16.8877 163.12 16.7487 162.79 16.4707 162.558C16.1927 162.325 15.7826 162.209 15.2402 162.209C14.862 162.209 14.4974 162.264 14.1465 162.373C13.7956 162.478 13.3809 162.685 12.9023 162.995L12.1162 161.874C13.0322 161.2 14.0964 160.862 15.3086 160.862C16.3158 160.862 17.1019 161.079 17.667 161.512C18.2321 161.945 18.5146 162.542 18.5146 163.303Z" fill="white"/>
<circle cx="15" cy="266" r="15" fill="#95E1E1"/>
<path d="M19.2461 268.819H17.8994V271H16.334V268.819H11.7676V267.582L16.334 260.979H17.8994V267.486H19.2461V268.819ZM16.334 267.486V264.978C16.334 264.084 16.3568 263.353 16.4023 262.783H16.3477C16.2201 263.084 16.0195 263.449 15.7461 263.877L13.2646 267.486H16.334Z" fill="white"/>
<circle cx="15" cy="388" r="15" fill="#95E1E1"/>
<path d="M15.5068 386.759C16.514 386.759 17.3115 387.025 17.8994 387.559C18.4873 388.092 18.7812 388.819 18.7812 389.739C18.7812 390.806 18.4463 391.64 17.7764 392.241C17.111 392.838 16.1631 393.137 14.9326 393.137C13.8161 393.137 12.9388 392.957 12.3008 392.597V391.141C12.6699 391.35 13.0938 391.512 13.5723 391.626C14.0508 391.74 14.4951 391.797 14.9053 391.797C15.6299 391.797 16.1813 391.635 16.5596 391.312C16.9378 390.988 17.127 390.514 17.127 389.89C17.127 388.696 16.3659 388.099 14.8438 388.099C14.6296 388.099 14.3652 388.121 14.0508 388.167C13.7363 388.208 13.4606 388.256 13.2236 388.311L12.5059 387.887L12.8887 383.006H18.084V384.435H14.3037L14.0781 386.909C14.2376 386.882 14.4313 386.85 14.6592 386.813C14.8916 386.777 15.1742 386.759 15.5068 386.759Z" fill="white"/>
<circle cx="15" cy="518" r="15" fill="#95E1E1"/>
<path d="M12.1436 518.741C12.1436 514.831 13.7363 512.876 16.9219 512.876C17.4232 512.876 17.847 512.915 18.1934 512.992V514.332C17.847 514.232 17.446 514.182 16.9902 514.182C15.9193 514.182 15.1149 514.469 14.5771 515.043C14.0394 515.617 13.7477 516.538 13.7021 517.805H13.7842C13.9984 517.436 14.2992 517.151 14.6865 516.95C15.0739 516.745 15.5296 516.643 16.0537 516.643C16.9606 516.643 17.667 516.921 18.1729 517.477C18.6787 518.033 18.9316 518.787 18.9316 519.739C18.9316 520.787 18.6377 521.617 18.0498 522.228C17.4665 522.834 16.6689 523.137 15.6572 523.137C14.9417 523.137 14.3197 522.966 13.791 522.624C13.2624 522.278 12.8545 521.776 12.5674 521.12C12.2848 520.459 12.1436 519.666 12.1436 518.741ZM15.6299 521.811C16.1813 521.811 16.6051 521.633 16.9014 521.277C17.2021 520.922 17.3525 520.414 17.3525 519.753C17.3525 519.179 17.2113 518.728 16.9287 518.399C16.6507 518.071 16.2314 517.907 15.6709 517.907C15.3245 517.907 15.0055 517.982 14.7139 518.133C14.4222 518.279 14.1921 518.481 14.0234 518.741C13.8548 518.996 13.7705 519.258 13.7705 519.527C13.7705 520.17 13.9437 520.712 14.29 521.154C14.641 521.592 15.0876 521.811 15.6299 521.811Z" fill="white"/>
<circle cx="15" cy="643" r="15" fill="#95E1E1"/>
<path d="M13.251 648L17.2021 639.435H12.0068V638.02H18.918V639.141L14.9873 648H13.251Z" fill="white"/>
<circle cx="15" cy="753" r="15" fill="#95E1E1"/>
<path d="M15.4932 747.876C16.4411 747.876 17.1908 748.095 17.7422 748.532C18.2936 748.965 18.5693 749.546 18.5693 750.275C18.5693 751.301 17.9541 752.117 16.7236 752.723C17.5075 753.115 18.0635 753.527 18.3916 753.96C18.7243 754.393 18.8906 754.876 18.8906 755.409C18.8906 756.234 18.5876 756.895 17.9814 757.392C17.3753 757.888 16.555 758.137 15.5205 758.137C14.4359 758.137 13.5951 757.904 12.998 757.439C12.401 756.975 12.1025 756.316 12.1025 755.464C12.1025 754.908 12.2575 754.409 12.5674 753.967C12.8818 753.52 13.3945 753.124 14.1055 752.777C13.4948 752.413 13.0596 752.028 12.7998 751.622C12.54 751.216 12.4102 750.761 12.4102 750.255C12.4102 749.53 12.695 748.954 13.2646 748.525C13.8343 748.092 14.5771 747.876 15.4932 747.876ZM13.6406 755.409C13.6406 755.883 13.807 756.252 14.1396 756.517C14.4723 756.776 14.9235 756.906 15.4932 756.906C16.0811 756.906 16.5368 756.772 16.8604 756.503C17.1885 756.229 17.3525 755.86 17.3525 755.396C17.3525 755.026 17.2021 754.689 16.9014 754.384C16.6006 754.078 16.1449 753.796 15.5342 753.536L15.3359 753.447C14.7344 753.712 14.3014 754.003 14.0371 754.322C13.7728 754.637 13.6406 754.999 13.6406 755.409ZM15.4795 749.113C15.0238 749.113 14.6569 749.227 14.3789 749.455C14.1009 749.678 13.9619 749.984 13.9619 750.371C13.9619 750.608 14.012 750.82 14.1123 751.007C14.2126 751.194 14.3584 751.365 14.5498 751.52C14.7412 751.67 15.0648 751.852 15.5205 752.066C16.0674 751.825 16.4525 751.572 16.6758 751.308C16.9036 751.039 17.0176 750.727 17.0176 750.371C17.0176 749.984 16.8763 749.678 16.5938 749.455C16.3158 749.227 15.9443 749.113 15.4795 749.113Z" fill="white"/>
<circle cx="15" cy="879" r="15" fill="#95E1E1"/>
<path d="M18.877 878.271C18.877 880.24 18.4805 881.71 17.6875 882.681C16.8945 883.651 15.7005 884.137 14.1055 884.137C13.4993 884.137 13.0641 884.1 12.7998 884.027V882.681C13.2054 882.795 13.6133 882.852 14.0234 882.852C15.1081 882.852 15.917 882.56 16.4502 881.977C16.9834 881.393 17.2751 880.477 17.3252 879.229H17.2432C16.9743 879.639 16.6484 879.935 16.2656 880.117C15.8874 880.299 15.443 880.391 14.9326 880.391C14.0485 880.391 13.3535 880.115 12.8477 879.563C12.3418 879.012 12.0889 878.256 12.0889 877.294C12.0889 876.25 12.3805 875.421 12.9639 874.806C13.5518 874.186 14.3516 873.876 15.3633 873.876C16.0742 873.876 16.694 874.049 17.2227 874.396C17.7513 874.742 18.1592 875.245 18.4463 875.906C18.7334 876.562 18.877 877.351 18.877 878.271ZM15.3906 875.209C14.8346 875.209 14.4085 875.391 14.1123 875.756C13.8161 876.116 13.668 876.624 13.668 877.28C13.668 877.85 13.8047 878.299 14.0781 878.627C14.3561 878.951 14.7754 879.112 15.3359 879.112C15.8783 879.112 16.334 878.951 16.7031 878.627C17.0723 878.303 17.2568 877.925 17.2568 877.492C17.2568 877.087 17.1771 876.708 17.0176 876.357C16.8626 876.002 16.6439 875.722 16.3613 875.517C16.0788 875.312 15.7552 875.209 15.3906 875.209Z" fill="white"/>
</svg>
