<svg width="50" height="50" viewBox="0 0 50 50" fill="none" xmlns="http://www.w3.org/2000/svg">
<path d="M32.8818 4H35.8818V0.999997H32.8818V4ZM32.8818 46V49H35.8818V46H32.8818ZM21.0018 46H18.0018V49H21.0018V46ZM21.0018 13.18H24.0018V10.18H21.0018V13.18ZM13.2018 13.18H10.2018V16.18H13.2018V13.18ZM13.2018 4V0.999997H10.2018V4H13.2018ZM29.8818 4V46H35.8818V4H29.8818ZM32.8818 43H21.0018V49H32.8818V43ZM24.0018 46V13.18H18.0018V46H24.0018ZM21.0018 10.18H13.2018V16.18H21.0018V10.18ZM16.2018 13.18V4H10.2018V13.18H16.2018ZM13.2018 7H32.8818V0.999997H13.2018V7Z" fill="#B798E0"/>
</svg>
