<svg width="50" height="50" viewBox="0 0 50 50" fill="none" xmlns="http://www.w3.org/2000/svg">
<path d="M41.541 36.58H44.541V33.58H41.541V36.58ZM41.541 46V49H44.541V46H41.541ZM8.84102 46H5.84102V49H8.84102V46ZM8.84102 38.56L6.79198 36.3688L5.84102 37.258V38.56H8.84102ZM24.561 23.86L26.6101 26.0512L26.6172 26.0446L26.6243 26.0379L24.561 23.86ZM27.621 20.2L30.2827 21.5841L30.2937 21.5629L30.3043 21.5416L27.621 20.2ZM27.021 13.9L28.9317 11.5871L27.021 13.9ZM18.681 13.84L20.0885 16.4893L20.1031 16.4816L20.1176 16.4737L18.681 13.84ZM15.501 16.84L14.0395 19.4599L16.512 20.8392L18.032 18.4506L15.501 16.84ZM6.68102 11.92L4.11188 10.371L2.50965 13.0283L5.21955 14.5399L6.68102 11.92ZM13.581 5.5L14.9797 8.15398L14.9797 8.15398L13.581 5.5ZM32.541 4.72L31.3647 7.47977L31.3728 7.4832L31.3808 7.48658L32.541 4.72ZM38.301 9.22L35.8363 10.9302L35.8563 10.9591L35.877 10.9875L38.301 9.22ZM38.901 22.42L36.2073 21.0995L36.2018 21.1106L36.1964 21.1218L38.901 22.42ZM33.261 29.26L31.2367 27.0459L31.2307 27.0514L31.2248 27.0569L33.261 29.26ZM25.341 36.58L23.3048 34.3769L17.6752 39.58H25.341V36.58ZM38.541 36.58V46H44.541V36.58H38.541ZM41.541 43H8.84102V49H41.541V43ZM11.841 46V38.56H5.84102V46H11.841ZM10.8901 40.7512L26.6101 26.0512L22.512 21.6688L6.79198 36.3688L10.8901 40.7512ZM26.6243 26.0379C28.216 24.5299 29.5286 23.0341 30.2827 21.5841L24.9594 18.8159C24.6734 19.3659 23.9461 20.3101 22.4978 21.6821L26.6243 26.0379ZM30.3043 21.5416C31.0077 20.1348 31.401 18.6383 31.401 17.08H25.401C25.401 17.6017 25.2743 18.1852 24.9377 18.8584L30.3043 21.5416ZM31.401 17.08C31.401 14.9655 30.6429 13.0007 28.9317 11.5871L25.1104 16.2129C25.2391 16.3193 25.401 16.4745 25.401 17.08H31.401ZM28.9317 11.5871C27.27 10.2144 25.1377 9.76 23.001 9.76V15.76C24.3843 15.76 24.932 16.0655 25.1104 16.2129L28.9317 11.5871ZM23.001 9.76C20.9586 9.76 19.022 10.2368 17.2445 11.2063L20.1176 16.4737C20.9801 16.0032 21.9234 15.76 23.001 15.76V9.76ZM17.2736 11.1907C15.4994 12.1331 14.0656 13.5077 12.97 15.2294L18.032 18.4506C18.6164 17.5323 19.3026 16.9068 20.0885 16.4893L17.2736 11.1907ZM16.9625 14.2201L8.14248 9.30005L5.21955 14.5399L14.0395 19.4599L16.9625 14.2201ZM9.25015 13.469C10.5926 11.2425 12.4763 9.47337 14.9797 8.15398L12.1823 2.84602C8.76576 4.64663 6.04942 7.15747 4.11188 10.371L9.25015 13.469ZM14.9797 8.15398C17.4278 6.86378 20.4282 6.16 24.081 6.16V0.159997C19.6539 0.159997 15.6542 1.01621 12.1823 2.84602L14.9797 8.15398ZM24.081 6.16C26.9584 6.16 29.365 6.62744 31.3647 7.47977L33.7173 1.96023C30.837 0.732557 27.6036 0.159997 24.081 0.159997V6.16ZM31.3808 7.48658C33.4033 8.33471 34.8419 9.49721 35.8363 10.9302L40.7658 7.50975C39.0401 5.02279 36.6387 3.18529 33.7012 1.95341L31.3808 7.48658ZM35.877 10.9875C36.8732 12.3537 37.401 13.9633 37.401 15.94H43.401C43.401 12.7967 42.5289 9.92628 40.725 7.45248L35.877 10.9875ZM37.401 15.94C37.401 17.7639 37.005 19.4721 36.2073 21.0995L41.5948 23.7405C42.797 21.2879 43.401 18.6761 43.401 15.94H37.401ZM36.1964 21.1218C35.4802 22.614 33.9258 24.5873 31.2367 27.0459L35.2853 31.4741C38.1962 28.8127 40.4018 26.226 41.6056 23.7182L36.1964 21.1218ZM31.2248 27.0569L23.3048 34.3769L27.3772 38.7831L35.2972 31.4631L31.2248 27.0569ZM25.341 39.58H41.541V33.58H25.341V39.58Z" fill="#B798E0"/>
</svg>
