<svg width="50" height="51" viewBox="0 0 50 51" fill="none" xmlns="http://www.w3.org/2000/svg">
<path d="M30.5038 20.8L28.3065 18.7576L24.6804 22.6587L29.896 23.7378L30.5038 20.8ZM38.4838 25.12L36.2001 27.0654L36.2195 27.0881L36.2393 27.1105L38.4838 25.12ZM39.2638 39.76L36.7387 38.1401L36.7278 38.1572L36.7171 38.1743L39.2638 39.76ZM33.1438 44.92L34.4212 47.6345L34.4297 47.6305L34.4382 47.6264L33.1438 44.92ZM14.1838 45.76L13.4562 48.6704L13.4656 48.6728L14.1838 45.76ZM6.68383 42.7L3.98266 41.3947L2.80982 43.8219L5.09815 45.2467L6.68383 42.7ZM11.0038 33.76L12.6957 31.2826L9.81855 29.3177L8.30266 32.4547L11.0038 33.76ZM16.5238 36.34L15.6773 39.2181L15.6848 39.2203L15.6923 39.2225L16.5238 36.34ZM27.5038 36.1L29.109 38.6345L29.109 38.6345L27.5038 36.1ZM17.9038 28.78H14.9038V31.78H17.9038V28.78ZM17.9038 21.28L15.7025 19.2418L14.9038 20.1044V21.28H17.9038ZM25.4038 13.18L27.6051 15.2182L32.2701 10.18H25.4038V13.18ZM8.84383 13.18H5.84383V16.18H8.84383V13.18ZM8.84383 4V0.999997H5.84383V4H8.84383ZM39.2038 4H42.2038V0.999997H39.2038V4ZM39.2038 11.44L41.4012 13.4824L42.2038 12.6189V11.44H39.2038ZM29.896 23.7378C32.8906 24.3574 34.8923 25.5302 36.2001 27.0654L40.7676 23.1746C38.3953 20.3898 35.077 18.6826 31.1116 17.8622L29.896 23.7378ZM36.2393 27.1105C37.5954 28.6397 38.3038 30.4954 38.3038 32.86H44.3038C44.3038 29.1446 43.1323 25.8403 40.7284 23.1295L36.2393 27.1105ZM38.3038 32.86C38.3038 34.7563 37.7938 36.4955 36.7387 38.1401L41.7889 41.3799C43.4539 38.7845 44.3038 35.9237 44.3038 32.86H38.3038ZM36.7171 38.1743C35.761 39.71 34.2103 41.0845 31.8495 42.2136L34.4382 47.6264C37.5974 46.1155 40.1267 44.05 41.8105 41.3457L36.7171 38.1743ZM31.8664 42.2055C29.6587 43.2445 26.7464 43.84 23.0038 43.84V49.84C27.3412 49.84 31.189 49.1555 34.4212 47.6345L31.8664 42.2055ZM23.0038 43.84C20.2898 43.84 17.5908 43.5102 14.902 42.8472L13.4656 48.6728C16.6168 49.4498 19.7979 49.84 23.0038 49.84V43.84ZM14.9114 42.8496C12.2791 42.1915 10.0796 41.2803 8.2695 40.1533L5.09815 45.2467C7.52807 46.7597 10.3285 47.8885 13.4562 48.6704L14.9114 42.8496ZM9.38499 44.0053L13.705 35.0653L8.30266 32.4547L3.98266 41.3947L9.38499 44.0053ZM9.31194 36.2374C11.2288 37.5465 13.3576 38.5358 15.6773 39.2181L17.3703 33.4619C15.61 32.9442 14.0589 32.2135 12.6957 31.2826L9.31194 36.2374ZM15.6923 39.2225C18.0205 39.894 20.3404 40.24 22.6438 40.24V34.24C20.9473 34.24 19.1872 33.9859 17.3553 33.4575L15.6923 39.2225ZM22.6438 40.24C25.0169 40.24 27.2627 39.8038 29.109 38.6345L25.8987 33.5655C25.345 33.9162 24.3508 34.24 22.6438 34.24V40.24ZM29.109 38.6345C31.162 37.3342 32.3038 35.3061 32.3038 32.86H26.3038C26.3038 33.1191 26.2523 33.2253 26.2314 33.2631C26.2094 33.3027 26.1388 33.4134 25.8987 33.5655L29.109 38.6345ZM32.3038 32.86C32.3038 30.5632 31.3171 28.5449 29.3079 27.268C27.5292 26.1377 25.245 25.78 22.8838 25.78V31.78C24.8027 31.78 25.7284 32.1023 26.0897 32.332C26.1652 32.3799 26.2032 32.4158 26.2196 32.4332C26.235 32.4495 26.2413 32.4598 26.2459 32.4685C26.2504 32.4772 26.3038 32.5778 26.3038 32.86H32.3038ZM22.8838 25.78H17.9038V31.78H22.8838V25.78ZM20.9038 28.78V21.28H14.9038V28.78H20.9038ZM20.1051 23.3182L27.6051 15.2182L23.2025 11.1418L15.7025 19.2418L20.1051 23.3182ZM25.4038 10.18H8.84383V16.18H25.4038V10.18ZM11.8438 13.18V4H5.84383V13.18H11.8438ZM8.84383 7H39.2038V0.999997H8.84383V7ZM36.2038 4V11.44H42.2038V4H36.2038ZM37.0065 9.39756L28.3065 18.7576L32.7012 22.8424L41.4012 13.4824L37.0065 9.39756Z" fill="#B798E0"/>
</svg>
