<svg width="50" height="50" viewBox="0 0 50 50" fill="none" xmlns="http://www.w3.org/2000/svg">
<path d="M45.6341 37.96V40.96H48.6341V37.96H45.6341ZM39.3941 37.96V34.96H36.3941V37.96H39.3941ZM39.3941 46V49H42.3941V46H39.3941ZM27.8141 46H24.8141V49H27.8141V46ZM27.8141 37.96H30.8141V34.96H27.8141V37.96ZM5.61414 37.96H2.61414V40.96H5.61414V37.96ZM5.61414 30.22L3.17785 28.4694L2.61414 29.254V30.22H5.61414ZM24.4541 4V0.999997H22.9156L22.0178 2.24943L24.4541 4ZM36.7541 4L39.2155 5.71513L42.5011 0.999997H36.7541V4ZM19.6541 28.54L17.1928 26.8249L13.9072 31.54H19.6541V28.54ZM28.1741 28.54V31.54H31.1741V28.54H28.1741ZM28.1741 21.4V18.4H25.1741V21.4H28.1741ZM39.3941 21.4H42.3941V18.4H39.3941V21.4ZM39.3941 28.54H36.3941V31.54H39.3941V28.54ZM45.6341 28.54H48.6341V25.54H45.6341V28.54ZM45.6341 34.96H39.3941V40.96H45.6341V34.96ZM36.3941 37.96V46H42.3941V37.96H36.3941ZM39.3941 43H27.8141V49H39.3941V43ZM30.8141 46V37.96H24.8141V46H30.8141ZM27.8141 34.96H5.61414V40.96H27.8141V34.96ZM8.61414 37.96V30.22H2.61414V37.96H8.61414ZM8.05043 31.9706L26.8904 5.75056L22.0178 2.24943L3.17785 28.4694L8.05043 31.9706ZM24.4541 7H36.7541V0.999997H24.4541V7ZM34.2928 2.28486L17.1928 26.8249L22.1155 30.2551L39.2155 5.71513L34.2928 2.28486ZM19.6541 31.54H28.1741V25.54H19.6541V31.54ZM31.1741 28.54V21.4H25.1741V28.54H31.1741ZM28.1741 24.4H39.3941V18.4H28.1741V24.4ZM36.3941 21.4V28.54H42.3941V21.4H36.3941ZM39.3941 31.54H45.6341V25.54H39.3941V31.54ZM42.6341 28.54V37.96H48.6341V28.54H42.6341Z" fill="#B798E0"/>
</svg>
