<svg width="50" height="51" viewBox="0 0 50 51" fill="none" xmlns="http://www.w3.org/2000/svg">
<path d="M37.5573 22.9L35.605 25.1778L35.6129 25.1846L35.621 25.1914L37.5573 22.9ZM39.7773 39.7L37.2256 38.1225L37.2215 38.1291L37.2175 38.1357L39.7773 39.7ZM33.6573 44.92L34.9347 47.6345L34.9432 47.6305L34.9517 47.6264L33.6573 44.92ZM14.6973 45.76L13.9697 48.6704L13.9791 48.6728L14.6973 45.76ZM7.25734 42.7L4.5491 41.4095L3.40578 43.8089L5.64987 45.233L7.25734 42.7ZM11.5173 33.76L13.1814 31.2638L10.2992 29.3424L8.8091 32.4695L11.5173 33.76ZM17.0373 36.34L16.1753 39.2135L16.1831 39.2158L16.1908 39.2181L17.0373 36.34ZM28.0173 36.1L29.6225 38.6345L29.6331 38.6277L29.6437 38.6209L28.0173 36.1ZM28.0773 29.62L26.5339 32.1925L26.5339 32.1925L28.0773 29.62ZM10.3173 28.54L7.32827 28.2842L7.04966 31.54H10.3173V28.54ZM12.4173 4V0.999997H9.6631L9.42827 3.74421L12.4173 4ZM39.1773 4H42.1773V0.999997H39.1773V4ZM39.1773 13.18V16.18H42.1773V13.18H39.1773ZM22.2573 13.18V10.18H19.5104L19.269 12.9163L22.2573 13.18ZM21.7173 19.3L18.729 19.0363L18.441 22.3H21.7173V19.3ZM24.5373 22.3C30.1026 22.3 33.5909 23.4514 35.605 25.1778L39.5097 20.6222C35.9238 17.5486 30.7321 16.3 24.5373 16.3V22.3ZM35.621 25.1914C37.7304 26.974 38.8173 29.307 38.8173 32.5H44.8173C44.8173 27.693 43.0643 23.626 39.4937 20.6086L35.621 25.1914ZM38.8173 32.5C38.8173 34.5459 38.2909 36.3991 37.2256 38.1225L42.3291 41.2775C43.9838 38.6009 44.8173 35.6541 44.8173 32.5H38.8173ZM37.2175 38.1357C36.258 39.7057 34.7098 41.0912 32.363 42.2136L34.9517 47.6264C38.1248 46.1088 40.6567 44.0143 42.3372 41.2643L37.2175 38.1357ZM32.38 42.2055C30.1722 43.2445 27.2599 43.84 23.5173 43.84V49.84C27.8548 49.84 31.7025 49.1555 34.9347 47.6345L32.38 42.2055ZM23.5173 43.84C20.8033 43.84 18.1043 43.5102 15.4156 42.8472L13.9791 48.6728C17.1303 49.4498 20.3114 49.84 23.5173 49.84V43.84ZM15.425 42.8496C12.7947 42.192 10.6246 41.2838 8.86482 40.167L5.64987 45.233C8.05009 46.7562 10.84 47.888 13.9697 48.6704L15.425 42.8496ZM9.96559 43.9905L14.2256 35.0505L8.8091 32.4695L4.5491 41.4095L9.96559 43.9905ZM9.85324 36.2562C11.7888 37.5465 13.9005 38.531 16.1753 39.2135L17.8994 33.4665C16.1742 32.9489 14.6059 32.2135 13.1814 31.2638L9.85324 36.2562ZM16.1908 39.2181C18.494 39.8955 20.8189 40.24 23.1573 40.24V34.24C21.4158 34.24 19.6606 33.9845 17.8838 33.4619L16.1908 39.2181ZM23.1573 40.24C25.5304 40.24 27.7762 39.8038 29.6225 38.6345L26.4122 33.5655C25.8585 33.9162 24.8643 34.24 23.1573 34.24V40.24ZM29.6437 38.6209C31.6844 37.3043 32.8773 35.2835 32.8773 32.8H26.8773C26.8773 33.0413 26.8287 33.149 26.7989 33.202C26.7654 33.2614 26.6709 33.3985 26.391 33.5791L29.6437 38.6209ZM32.8773 32.8C32.8773 30.3467 31.7249 28.31 29.6208 27.0475L26.5339 32.1925C26.7565 32.3261 26.8077 32.4172 26.8166 32.4328C26.8254 32.4485 26.8773 32.5396 26.8773 32.8H32.8773ZM29.6208 27.0475C27.659 25.8704 24.8005 25.54 21.7173 25.54V31.54C24.7141 31.54 26.0957 31.9296 26.5339 32.1925L29.6208 27.0475ZM21.7173 25.54H10.3173V31.54H21.7173V25.54ZM13.3064 28.7958L15.4064 4.25579L9.42827 3.74421L7.32827 28.2842L13.3064 28.7958ZM12.4173 7H39.1773V0.999997H12.4173V7ZM36.1773 4V13.18H42.1773V4H36.1773ZM39.1773 10.18H22.2573V16.18H39.1773V10.18ZM19.269 12.9163L18.729 19.0363L24.7057 19.5637L25.2457 13.4437L19.269 12.9163ZM21.7173 22.3H24.5373V16.3H21.7173V22.3Z" fill="#B798E0"/>
</svg>
