<svg width="50" height="51" viewBox="0 0 50 51" fill="none" xmlns="http://www.w3.org/2000/svg">
<path d="M36.2976 20.92L34.9365 23.5935L34.956 23.6034L34.9756 23.613L36.2976 20.92ZM41.5176 25.6L38.9764 27.1945L38.9947 27.2237L39.0138 27.2525L41.5176 25.6ZM41.2776 40.06L38.7884 38.3855L38.7814 38.3959L41.2776 40.06ZM35.3376 45.1L36.6086 47.8174L36.618 47.813L36.6274 47.8086L35.3376 45.1ZM12.7776 41.5L14.9229 39.4029L14.9229 39.4029L12.7776 41.5ZM10.3176 13.78L7.67809 12.3541L7.67222 12.365L10.3176 13.78ZM36.7176 3.94L37.4197 1.02333L37.4197 1.02333L36.7176 3.94ZM42.2376 6.22L44.9133 7.57669L46.1252 5.18659L43.8864 3.71374L42.2376 6.22ZM37.9176 14.74L36.1875 17.1909L39.0235 19.1927L40.5933 16.0967L37.9176 14.74ZM22.7976 15.1L20.7986 12.863L20.7986 12.863L22.7976 15.1ZM19.5576 22.36L16.5693 22.0952L15.9143 29.4874L21.5224 24.6271L19.5576 22.36ZM30.3576 36.94L28.3645 34.6978L28.3434 34.7165L28.3227 34.7356L30.3576 36.94ZM30.3576 29.2L28.3227 31.4044L28.3434 31.4235L28.3645 31.4422L30.3576 29.2ZM22.0176 29.26L24.0107 31.5022L24.0334 31.482L24.0558 31.4613L22.0176 29.26ZM21.9576 36.94L19.8783 39.1025L19.9206 39.1432L19.9645 39.1822L21.9576 36.94ZM29.0376 22.24C31.2381 22.24 33.1871 22.7029 34.9365 23.5935L37.6586 18.2465C35.008 16.8971 32.117 16.24 29.0376 16.24V22.24ZM34.9756 23.613C36.6843 24.4518 37.9982 25.6356 38.9764 27.1945L44.0588 24.0055C42.4769 21.4844 40.3109 19.5482 37.6196 18.227L34.9756 23.613ZM39.0138 27.2525C39.9825 28.7204 40.4976 30.4354 40.4976 32.5H46.4976C46.4976 29.3646 45.6926 26.4796 44.0214 23.9475L39.0138 27.2525ZM40.4976 32.5C40.4976 34.788 39.9114 36.7162 38.7884 38.3855L43.7667 41.7345C45.6038 39.0038 46.4976 35.892 46.4976 32.5H40.4976ZM38.7814 38.3959C37.6645 40.0713 36.1169 41.4061 34.0478 42.3914L36.6274 47.8086C39.5983 46.3939 42.0107 44.3687 43.7737 41.7241L38.7814 38.3959ZM34.0665 42.3826C32.0315 43.3344 29.6935 43.84 26.9976 43.84V49.84C30.4617 49.84 33.6837 49.1856 36.6086 47.8174L34.0665 42.3826ZM26.9976 43.84C21.6273 43.84 17.7252 42.2697 14.9229 39.4029L10.6323 43.5971C14.7899 47.8503 20.3679 49.84 26.9976 49.84V43.84ZM14.9229 39.4029C12.157 36.5735 10.5576 32.3114 10.5576 26.14H4.55758C4.55758 33.3286 6.43813 39.3065 10.6323 43.5971L14.9229 39.4029ZM10.5576 26.14C10.5576 21.7214 11.4035 18.1104 12.9629 15.195L7.67222 12.365C5.55165 16.3296 4.55758 20.9586 4.55758 26.14H10.5576ZM12.957 15.2059C14.5688 12.2225 16.7727 10.016 19.5942 8.50444L16.7609 3.21556C12.8625 5.30401 9.8264 8.37747 7.67812 12.3541L12.957 15.2059ZM19.5942 8.50444C22.4517 6.97365 25.8501 6.16 29.8776 6.16V0.159997C25.0251 0.159997 20.6234 1.14635 16.7609 3.21556L19.5942 8.50444ZM29.8776 6.16C32.0599 6.16 34.103 6.39626 36.0154 6.85667L37.4197 1.02333C35.0122 0.443735 32.4953 0.159997 29.8776 0.159997V6.16ZM36.0154 6.85667C37.9105 7.3129 39.4142 7.95355 40.5887 8.72625L43.8864 3.71374C42.0209 2.48645 39.8446 1.6071 37.4197 1.02333L36.0154 6.85667ZM39.5619 4.8633L35.2419 13.3833L40.5933 16.0967L44.9133 7.57669L39.5619 4.8633ZM39.6476 12.2891C36.9876 10.4114 33.7613 9.58 30.1776 9.58V15.58C32.8338 15.58 34.7676 16.1886 36.1875 17.1909L39.6476 12.2891ZM30.1776 9.58C26.5596 9.58 23.3368 10.5949 20.7986 12.863L24.7966 17.337C26.0184 16.2451 27.7156 15.58 30.1776 15.58V9.58ZM20.7986 12.863C18.2137 15.173 16.8984 18.3806 16.5693 22.0952L22.5459 22.6248C22.7767 20.0194 23.6215 18.387 24.7966 17.337L20.7986 12.863ZM21.5224 24.6271C23.2574 23.1233 25.6637 22.24 29.0376 22.24V16.24C24.5714 16.24 20.6577 17.4367 17.5928 20.0929L21.5224 24.6271ZM26.2776 41.38C28.5621 41.38 30.6973 40.7091 32.3924 39.1444L28.3227 34.7356C27.9378 35.0909 27.353 35.38 26.2776 35.38V41.38ZM32.3507 39.1822C34.1612 37.5729 34.9776 35.4086 34.9776 33.04H28.9776C28.9776 33.9514 28.714 34.3871 28.3645 34.6978L32.3507 39.1822ZM34.9776 33.04C34.9776 30.6858 34.1441 28.552 32.3507 26.9578L28.3645 31.4422C28.731 31.768 28.9776 32.1942 28.9776 33.04H34.9776ZM32.3924 26.9956C30.6843 25.4188 28.5208 24.76 26.2176 24.76V30.76C27.3544 30.76 27.9509 31.0612 28.3227 31.4044L32.3924 26.9956ZM26.2176 24.76C23.8777 24.76 21.7062 25.4598 19.9794 27.0587L24.0558 31.4613C24.489 31.0602 25.1174 30.76 26.2176 30.76V24.76ZM20.0245 27.0178C18.231 28.612 17.3976 30.7458 17.3976 33.1H23.3976C23.3976 32.2541 23.6441 31.828 24.0107 31.5022L20.0245 27.0178ZM17.3976 33.1C17.3976 35.4024 18.199 37.4878 19.8783 39.1025L24.0369 34.7775C23.6362 34.3922 23.3976 33.9176 23.3976 33.1H17.3976ZM19.9645 39.1822C21.7193 40.7421 23.9304 41.38 26.2776 41.38V35.38C25.0248 35.38 24.3559 35.0579 23.9507 34.6978L19.9645 39.1822Z" fill="#B798E0"/>
</svg>
