<svg width="50" height="51" viewBox="0 0 50 51" fill="none" xmlns="http://www.w3.org/2000/svg">
<path d="M42.2249 4H45.2249V0.999997H42.2249V4ZM42.2249 11.44L44.9821 12.6223L45.2249 12.0561V11.44H42.2249ZM27.4049 46V49H29.3827L30.1621 47.1823L27.4049 46ZM14.4449 46L11.6936 44.8042L9.86996 49H14.4449V46ZM28.6049 13.42L31.3563 14.6158L33.1799 10.42H28.6049V13.42ZM17.5649 13.42V10.42H14.5649V13.42H17.5649ZM17.5649 19.9V22.9H20.5649V19.9H17.5649ZM7.42492 19.9H4.42492V22.9H7.42492V19.9ZM7.42492 4V0.999997H4.42492V4H7.42492ZM39.2249 4V11.44H45.2249V4H39.2249ZM39.4677 10.2577L24.6477 44.8177L30.1621 47.1823L44.9821 12.6223L39.4677 10.2577ZM27.4049 43H14.4449V49H27.4049V43ZM17.1963 47.1958L31.3563 14.6158L25.8536 12.2242L11.6936 44.8042L17.1963 47.1958ZM28.6049 10.42H17.5649V16.42H28.6049V10.42ZM14.5649 13.42V19.9H20.5649V13.42H14.5649ZM17.5649 16.9H7.42492V22.9H17.5649V16.9ZM10.4249 19.9V4H4.42492V19.9H10.4249ZM7.42492 7H42.2249V0.999997H7.42492V7Z" fill="#B798E0"/>
</svg>
