<svg width="24" height="19" viewBox="0 0 24 19" fill="none" xmlns="http://www.w3.org/2000/svg">
<path d="M23.2222 0.325195H0.777814C0.348263 0.325195 0 0.686556 0 1.13225V17.5182C0 17.9639 0.348263 18.3252 0.777814 18.3252H23.2221C23.6517 18.3252 24 17.9639 24 17.5182V1.13225C24 0.686556 23.6518 0.325195 23.2222 0.325195ZM21.2377 14.1715C21.5671 14.468 21.6023 14.9854 21.3165 15.3272C21.0306 15.6688 20.532 15.7056 20.2024 15.4089C19.9984 15.2252 14.8491 10.5886 14.6506 10.41L12.5176 12.3306C12.3692 12.4643 12.1846 12.5312 12 12.5312C11.8154 12.5312 11.6308 12.4643 11.4824 12.3306L9.34936 10.41C9.15087 10.5887 4.00163 15.2252 3.79757 15.4089C3.46816 15.7055 2.96937 15.669 2.6835 15.3272C2.39762 14.9854 2.43289 14.468 2.76231 14.1715L8.14457 9.32514L2.76231 4.47894C2.43295 4.18235 2.39767 3.66495 2.6835 3.32319C2.96943 2.98149 3.46816 2.94479 3.79757 3.24148C4.06449 3.48181 11.5154 10.1907 12 10.6271C12.4197 10.2492 19.9132 3.50196 20.2024 3.24148C20.5318 2.94484 21.0306 2.98139 21.3165 3.32319C21.6024 3.66495 21.5671 4.18241 21.2377 4.47894L15.8554 9.32514L21.2377 14.1715Z" fill="black"/>
</svg>
