<svg width="25" height="25" viewBox="0 0 25 25" fill="none" xmlns="http://www.w3.org/2000/svg">
<path d="M21.186 4.18198C18.6847 1.68111 15.2727 0.419275 11.6901 0.707421C6.87369 1.09402 2.65194 4.44131 1.23909 9.05885C0.229909 12.3581 0.654005 15.8027 2.29753 18.6481L0.740506 23.8143C0.591532 24.3102 1.04446 24.7772 1.54545 24.644L6.95658 23.1948C8.70943 24.1505 10.6821 24.6536 12.6909 24.6548H12.6957C17.7356 24.6548 22.3923 21.574 24.0033 16.8016C25.5724 12.148 24.4118 7.40922 21.186 4.18198ZM18.5682 16.9396C18.3183 17.6396 17.094 18.3143 16.5438 18.3636C15.9936 18.414 15.4782 18.6121 12.9456 17.6144C9.89762 16.4138 7.97297 13.291 7.824 13.0917C7.67382 12.8912 6.59976 11.4673 6.59976 9.99293C6.59976 8.51858 7.37467 7.79341 7.64979 7.49446C7.92492 7.19431 8.2493 7.11987 8.44993 7.11987C8.64936 7.11987 8.85 7.11987 9.0242 7.12707C9.23805 7.13548 9.47473 7.14628 9.69939 7.64454C9.9661 8.23764 10.5488 9.71919 10.6233 9.86926C10.6978 10.0193 10.7482 10.1946 10.6485 10.3939C10.5488 10.5932 10.4983 10.7181 10.3494 10.8934C10.1992 11.0687 10.0346 11.2836 9.90003 11.418C9.74985 11.5669 9.59367 11.7302 9.76787 12.0292C9.94328 12.3293 10.544 13.3102 11.4354 14.1038C12.5816 15.1243 13.5463 15.4401 13.8466 15.5914C14.147 15.7414 14.3212 15.7162 14.4966 15.5157C14.672 15.3164 15.2463 14.6417 15.4457 14.3415C15.6452 14.0414 15.8458 14.0918 16.1209 14.1915C16.396 14.2911 17.8702 15.0163 18.1693 15.1663C18.4697 15.3164 18.6691 15.3909 18.7436 15.5157C18.8181 15.6394 18.8181 16.2397 18.5682 16.9396Z" fill="black"/>
</svg>
